M48
; DRILL file KiCad 10.0.5-1.fc44 date 2026-09-03T17:06:09
; FORMAT={-:-/ absolute / metric / decimal}
; #@! TF.CreationDate,2026-09-03T17:06:09+03:00
; #@! TF.GenerationSoftware,Kicad,Pcbnew,10.0.5-1.fc44
; #@! TF.FileFunction,Plated,1,2,PTH
FMAT,2
METRIC
; #@! TA.AperFunction,Plated,PTH,ComponentDrill
T1C0.750
; #@! TA.AperFunction,Plated,PTH,ComponentDrill
T2C0.800
; #@! TA.AperFunction,Plated,PTH,ComponentDrill
T3C1.000
; #@! TA.AperFunction,Plated,PTH,ComponentDrill
T4C1.016
; #@! TA.AperFunction,Plated,PTH,ComponentDrill
T5C1.020
; #@! TA.AperFunction,Plated,PTH,ComponentDrill
T6C1.100
; #@! TA.AperFunction,Plated,PTH,ComponentDrill
T7C1.300
%
G90
G05
T1
X171.58Y-105.65
X172.85Y-105.65
X174.12Y-105.65
X178.48Y-62.61
X179.75Y-62.61
X181.02Y-62.61
T2
X72.0Y-50.0
X72.0Y-89.956
X90.1Y-49.85
X90.3Y-90.1
X114.75Y-62.09
X114.75Y-82.41
X116.59Y-140.75
X122.0Y-62.09
X122.0Y-82.41
X132.25Y-62.0
X132.25Y-82.32
X136.91Y-140.75
X141.0Y-62.0
X141.0Y-82.32
X145.43Y-141.0
X145.5Y-134.0
X153.0Y-61.84
X153.0Y-82.16
X161.25Y-61.84
X161.25Y-82.16
X165.75Y-141.0
X165.82Y-134.0
X167.46Y-97.4
X173.25Y-46.73
X173.25Y-67.05
X187.78Y-97.4
T3
X116.71Y-39.5
X119.25Y-39.5
X123.96Y-147.5
X126.5Y-147.5
X129.04Y-147.5
X135.48Y-39.0
X138.02Y-39.0
X154.0Y-39.0
X156.54Y-39.0
X166.985Y-39.0
X169.525Y-39.0
X177.5Y-38.75
X178.38Y-148.41
X180.04Y-38.75
X180.92Y-148.41
X182.75Y-50.5
X183.46Y-148.41
X186.0Y-148.41
X187.75Y-50.5
T4
X172.92Y-129.0
X172.92Y-139.16
X175.46Y-129.0
X175.46Y-139.16
X178.0Y-129.0
X178.0Y-139.16
X180.54Y-129.0
X180.54Y-139.16
X183.08Y-129.0
X183.08Y-139.16
X185.62Y-129.0
X185.62Y-139.16
T5
X123.81Y-94.0
X123.81Y-119.4
X126.35Y-94.0
X126.35Y-119.4
X128.89Y-94.0
X128.89Y-119.4
X131.43Y-94.0
X131.43Y-119.4
X133.97Y-94.0
X133.97Y-119.4
X136.51Y-94.0
X136.51Y-119.4
X139.05Y-94.0
X139.05Y-119.4
X141.59Y-94.0
X141.59Y-119.4
X144.13Y-94.0
X144.13Y-119.4
X146.67Y-94.0
X146.67Y-119.4
X149.21Y-94.0
X149.21Y-119.4
X151.75Y-94.0
X151.75Y-119.4
X154.29Y-94.0
X154.29Y-119.4
X156.83Y-94.0
X156.83Y-119.4
X159.37Y-94.0
X159.37Y-119.4
T6
X115.17Y-46.5
X117.71Y-46.5
X120.25Y-46.5
X131.42Y-45.75
X134.21Y-52.0
X136.75Y-52.0
X139.29Y-52.0
X141.58Y-45.75
X150.67Y-45.75
X153.96Y-53.95
X156.5Y-53.95
X159.04Y-53.95
X160.83Y-45.75
T7
X74.417Y-37.25
X74.417Y-40.75
M30
